<?xml version="1.0" encoding="UTF-8"?>
<svg width="70px" height="70px" viewBox="0 0 70 70" version="1.1" xmlns="http://www.w3.org/2000/svg" xmlns:xlink="http://www.w3.org/1999/xlink">
    <!-- Generator: Sketch 64 (93537) - https://sketch.com -->
    <title>ekolain-voskresensk</title>
    <desc>Created with Sketch.</desc>
    <g id="Page-1" stroke="none" stroke-width="1" fill="none" fill-rule="evenodd">
        <g id="ekolain-voskresensk">
            <path d="M70,35 C70,54.33 54.33,70 35,70 C15.67,70 0,54.33 0,35 C0,15.67 15.67,0 35,0 C54.33,0 70,15.67 70,35" id="Fill-9" fill="#99B2BF"></path>
            <path d="M35,0 C15.67,0 0,15.67 0,35 C0,54.33 15.67,70 35,70 C54.33,70 70,54.33 70,35 C70,15.67 54.33,0 35,0 M35,2 C53.1965,2 68,16.8035 68,35 C68,53.1965 53.1965,68 35,68 C16.8035,68 2,53.1965 2,35 C2,16.8035 16.8035,2 35,2" id="Fill-11" fill="#FFFFFF"></path>
            <path d="M62.25,46 L7.75,46 C7.4085,46 7.0905,45.8255 6.9065,45.5375 C6.723,45.2495 6.699,44.888 6.8435,44.578 L16.8435,23.078 C17.0075,22.7255 17.361,22.5 17.75,22.5 L28.1445,22.5 C28.697,22.5 29.1445,22.948 29.1445,23.5 C29.1445,24.052 28.697,24.5 28.1445,24.5 L18.3875,24.5 L9.318,44 L60.682,44 L51.6125,24.5 L41.8555,24.5 C41.303,24.5 40.8555,24.052 40.8555,23.5 C40.8555,22.948 41.303,22.5 41.8555,22.5 L52.25,22.5 C52.639,22.5 52.9925,22.7255 53.1565,23.078 L63.1565,44.578 C63.301,44.888 63.277,45.2495 63.0935,45.5375 C62.9095,45.8255 62.5915,46 62.25,46" id="Fill-207" fill="#FFFFFF"></path>
            <path d="M62.25,51.5 L7.75,51.5 C7.4085,51.5 7.0905,51.3255 6.9065,51.0375 C6.723,50.7495 6.699,50.388 6.8435,50.078 L9.4015,44.578 C9.635,44.077 10.23,43.8615 10.73,44.0935 C11.2305,44.326 11.448,44.921 11.215,45.422 L9.318,49.5 L60.682,49.5 L58.785,45.422 C58.552,44.921 58.7695,44.326 59.27,44.0935 C59.772,43.86 60.3655,44.0775 60.5985,44.578 L63.1565,50.078 C63.301,50.388 63.277,50.7495 63.0935,51.0375 C62.9095,51.3255 62.5915,51.5 62.25,51.5" id="Fill-209" fill="#FFFFFF"></path>
            <path d="M35,8 C30.451,8 26.75,11.701 26.75,16.25 C26.75,19.813 32.102,29.046 35,33.647 C37.898,29.046 43.25,19.813 43.25,16.25 C43.25,11.701 39.549,8 35,8 M35,36.5 C34.6625,36.5 34.3475,36.3295 34.163,36.0475 C33.779,35.46 24.75,21.5945 24.75,16.25 C24.75,10.598 29.348,6 35,6 C40.652,6 45.25,10.598 45.25,16.25 C45.25,21.5945 36.221,35.46 35.837,36.0475 C35.6525,36.3295 35.3375,36.5 35,36.5" id="Fill-211" fill="#FFFFFF"></path>
            <path d="M35,14 C34.173,14 33.5,14.673 33.5,15.5 C33.5,16.327 34.173,17 35,17 C35.827,17 36.5,16.327 36.5,15.5 C36.5,14.673 35.827,14 35,14 M35,19 C33.0705,19 31.5,17.4295 31.5,15.5 C31.5,13.5705 33.0705,12 35,12 C36.9295,12 38.5,13.5705 38.5,15.5 C38.5,17.4295 36.9295,19 35,19" id="Fill-213" fill="#FFFFFF"></path>
        </g>
    </g>
</svg>