<?xml version="1.0" encoding="UTF-8"?>
<svg width="70px" height="70px" viewBox="0 0 70 70" version="1.1" xmlns="http://www.w3.org/2000/svg" xmlns:xlink="http://www.w3.org/1999/xlink">
    <!-- Generator: Sketch 64 (93537) - https://sketch.com -->
    <title>ekolain</title>
    <desc>Created with Sketch.</desc>
    <g id="Page-1" stroke="none" stroke-width="1" fill="none" fill-rule="evenodd">
        <g id="ekolain">
            <path d="M70,35 C70,54.33 54.33,70 35,70 C15.67,70 0,54.33 0,35 C0,15.67 15.67,0 35,0 C54.33,0 70,15.67 70,35" id="Fill-5" fill="#99B2BF"></path>
            <path d="M35,0 C15.67,0 0,15.67 0,35 C0,54.33 15.67,70 35,70 C54.33,70 70,54.33 70,35 C70,15.67 54.33,0 35,0 M35,2 C53.1965,2 68,16.8035 68,35 C68,53.1965 53.1965,68 35,68 C16.8035,68 2,53.1965 2,35 C2,16.8035 16.8035,2 35,2" id="Fill-7" fill="#FFFFFF"></path>
            <path d="M23.8086,44.5 C22.5681,44.5 21.5586,45.5095 21.5586,46.75 C21.5586,47.9905 22.5681,49 23.8086,49 C25.0491,49 26.0586,47.9905 26.0586,46.75 C26.0586,45.5095 25.0491,44.5 23.8086,44.5 M23.8086,51 C21.4651,51 19.5586,49.0935 19.5586,46.75 C19.5586,44.4065 21.4651,42.5 23.8086,42.5 C26.1521,42.5 28.0586,44.4065 28.0586,46.75 C28.0586,49.0935 26.1521,51 23.8086,51" id="Fill-185" fill="#FFFFFF"></path>
            <path d="M52.25,44.5 C51.0095,44.5 50,45.5095 50,46.75 C50,47.9905 51.0095,49 52.25,49 C53.4905,49 54.5,47.9905 54.5,46.75 C54.5,45.5095 53.4905,44.5 52.25,44.5 M52.25,51 C49.9065,51 48,49.0935 48,46.75 C48,44.4065 49.9065,42.5 52.25,42.5 C54.5935,42.5 56.5,44.4065 56.5,46.75 C56.5,49.0935 54.5935,51 52.25,51" id="Fill-187" fill="#FFFFFF"></path>
            <path d="M49,47.5586 L27.0585,47.5586 C26.5065,47.5586 26.0585,47.1106 26.0585,46.5586 C26.0585,46.0066 26.5065,45.5586 27.0585,45.5586 L49,45.5586 C49.552,45.5586 50,46.0066 50,46.5586 C50,47.1106 49.552,47.5586 49,47.5586" id="Fill-189" fill="#FFFFFF"></path>
            <path d="M20.5586,47.5586 L14.8236,47.5586 C14.5156,47.5586 14.2246,47.4166 14.0351,47.1731 C13.8456,46.9301 13.7786,46.6131 13.8541,46.3146 L19.5301,23.7561 C19.6421,23.3116 20.0416,23.0001 20.5001,23.0001 L46.5001,23.0001 C47.0521,23.0001 47.5001,23.4476 47.5001,24.0001 L47.5001,46.5001 C47.5001,47.0521 47.0521,47.5001 46.5001,47.5001 C45.9476,47.5001 45.5001,47.0521 45.5001,46.5001 L45.5001,25.0001 L21.2796,25.0001 L16.1066,45.5586 L20.5586,45.5586 C21.1106,45.5586 21.5586,46.0066 21.5586,46.5586 C21.5586,47.1106 21.1106,47.5586 20.5586,47.5586" id="Fill-191" fill="#FFFFFF"></path>
            <path d="M61.5586,47.5586 L55.8236,47.5586 C55.2716,47.5586 54.8236,47.1106 54.8236,46.5586 C54.8236,46.0066 55.2716,45.5586 55.8236,45.5586 L60.5586,45.5586 L60.5586,37.7536 L56.9041,31.0001 L47.5001,31.0001 C46.9476,31.0001 46.5001,30.5521 46.5001,30.0001 C46.5001,29.4476 46.9476,29.0001 47.5001,29.0001 L57.5001,29.0001 C57.8671,29.0001 58.2046,29.2011 58.3796,29.5241 L62.4381,37.0241 C62.5171,37.1706 62.5586,37.3341 62.5586,37.5001 L62.5586,46.5586 C62.5586,47.1106 62.1106,47.5586 61.5586,47.5586" id="Fill-193" fill="#FFFFFF"></path>
            <path d="M61.5,39.5 L46.5,39.5 C45.948,39.5 45.5,39.052 45.5,38.5 C45.5,37.948 45.948,37.5 46.5,37.5 L61.5,37.5 C62.052,37.5 62.5,37.948 62.5,38.5 C62.5,39.052 62.052,39.5 61.5,39.5" id="Fill-195" fill="#FFFFFF"></path>
            <path d="M5.5005,38.5005 C5.4155,38.5005 5.3285,38.4895 5.242,38.4665 C4.7085,38.3235 4.3915,37.776 4.5335,37.242 C4.5555,37.1605 6.8135,29.0735 15.8835,28.007 C16.4285,27.935 16.928,28.3345 16.993,28.8835 C17.0575,29.4315 16.6655,29.9285 16.1165,29.993 C8.381,30.9035 6.4845,37.6895 6.4665,37.758 C6.347,38.205 5.9425,38.5005 5.5005,38.5005" id="Fill-197" fill="#FFFFFF"></path>
            <path d="M8.99855,48.5 C8.50905,48.5 8.08155,48.14 8.01005,47.6415 C6.95155,40.2315 12.07405,35.0115 12.29305,34.793 C12.68355,34.4025 13.31655,34.4025 13.70705,34.793 C14.09705,35.183 14.09755,35.815 13.70855,36.2055 C13.66205,36.2525 9.07555,40.959 9.98955,47.3585 C10.06805,47.9055 9.68805,48.4115 9.14155,48.4895 C9.09305,48.4965 9.04605,48.5 8.99855,48.5" id="Fill-199" fill="#FFFFFF"></path>
            <path d="M24.57715,39.37745 C24.49615,39.37745 24.41415,39.36745 24.33215,39.34695 C23.79615,39.21245 23.47165,38.66895 23.60665,38.13345 L26.03015,28.50045 C26.16515,27.96445 26.70865,27.63945 27.24415,27.77495 C27.77965,27.90945 28.10465,28.45295 27.96965,28.98895 L25.54565,38.62145 C25.43165,39.07545 25.02465,39.37745 24.57715,39.37745" id="Fill-201" fill="#FFFFFF"></path>
            <path d="M30.07715,39.37745 C29.99615,39.37745 29.91415,39.36745 29.83215,39.34695 C29.29615,39.21245 28.97165,38.66895 29.10665,38.13345 L31.53015,28.50045 C31.66515,27.96445 32.20815,27.63945 32.74415,27.77495 C33.27965,27.90945 33.60465,28.45295 33.46965,28.98895 L31.04565,38.62145 C30.93165,39.07545 30.52465,39.37745 30.07715,39.37745" id="Fill-203" fill="#FFFFFF"></path>
            <path d="M35.57715,39.37745 C35.49615,39.37745 35.41415,39.36745 35.33215,39.34695 C34.79615,39.21245 34.47165,38.66895 34.60665,38.13345 L37.03015,28.50045 C37.16515,27.96445 37.70915,27.63945 38.24415,27.77495 C38.77965,27.90945 39.10465,28.45295 38.96965,28.98895 L36.54565,38.62145 C36.43165,39.07545 36.02465,39.37745 35.57715,39.37745" id="Fill-205" fill="#FFFFFF"></path>
        </g>
    </g>
</svg>