<?xml version="1.0" encoding="UTF-8"?>
<svg width="70px" height="70px" viewBox="0 0 70 70" version="1.1" xmlns="http://www.w3.org/2000/svg" xmlns:xlink="http://www.w3.org/1999/xlink">
    <!-- Generator: Sketch 64 (93537) - https://sketch.com -->
    <title>ekoresurs</title>
    <desc>Created with Sketch.</desc>
    <g id="Page-1" stroke="none" stroke-width="1" fill="none" fill-rule="evenodd">
        <g id="ekoresurs">
            <path d="M70,35 C70,54.33 54.33,70 35,70 C15.67,70 0,54.33 0,35 C0,15.67 15.67,0 35,0 C54.33,0 70,15.67 70,35" id="Fill-237" fill="#99B2BF"></path>
            <path d="M35,0 C15.67,0 0,15.67 0,35 C0,54.33 15.67,70 35,70 C54.33,70 70,54.33 70,35 C70,15.67 54.33,0 35,0 M35,2 C53.1965,2 68,16.8035 68,35 C68,53.1965 53.1965,68 35,68 C16.8035,68 2,53.1965 2,35 C2,16.8035 16.8035,2 35,2" id="Fill-239" fill="#FFFFFF"></path>
            <path d="M27.10255,15.1299 L39.42105,27.4484 C42.18255,24.1874 44.30905,18.3224 43.22355,14.5204 C43.13055,14.1934 43.22105,13.8414 43.46205,13.6009 L46.61905,10.4434 L44.10755,7.9319 L40.95005,11.0889 C40.70955,11.3294 40.35605,11.4209 40.03105,11.3274 C36.22655,10.2429 30.36305,12.3684 27.10255,15.1299 M39.44905,29.7379 C39.20955,29.7379 38.96955,29.6464 38.78705,29.4634 L25.08755,15.7639 C24.72155,15.3979 24.72155,14.8054 25.08755,14.4394 C28.39155,11.1344 35.18205,8.3564 40.00005,9.3904 L43.44555,5.9454 C43.81055,5.5789 44.40455,5.5789 44.76955,5.9454 L48.60555,9.7814 C48.97105,10.1469 48.97105,10.7399 48.60555,11.1054 L45.16005,14.5514 C46.19305,19.3669 43.41605,26.1594 40.11155,29.4634 C39.92855,29.6464 39.68905,29.7379 39.44905,29.7379" id="Fill-269" fill="#FFFFFF"></path>
            <path d="M14.60645,28.3906 L26.16045,39.9441 L37.71445,28.3906 L26.16045,16.8366 L14.60645,28.3906 Z M26.16045,42.2051 C25.92095,42.2051 25.68095,42.1136 25.49845,41.9306 L12.61995,29.0526 C12.44445,28.8776 12.34595,28.6391 12.34595,28.3906 C12.34595,28.1421 12.44445,27.9036 12.61995,27.7286 L25.49845,14.8501 C25.84895,14.4986 26.47195,14.4986 26.82295,14.8501 L39.70045,27.7286 C40.06645,28.0941 40.06645,28.6871 39.70045,29.0526 L26.82295,41.9306 C26.63995,42.1136 26.40045,42.2051 26.16045,42.2051 L26.16045,42.2051 Z" id="Fill-271" fill="#FFFFFF"></path>
            <path d="M11.7754,38.09865 C12.4119,38.09865 13.0489,38.34015 13.5339,38.82465 L15.7254,41.01715 C16.6954,41.98665 16.6954,43.56415 15.7254,44.53365 C15.6099,44.65015 15.5459,44.80365 15.5459,44.96715 C15.5459,45.13115 15.6099,45.28515 15.7254,45.40115 L18.4654,48.14115 C18.7044,48.38015 19.0944,48.38015 19.3334,48.14115 L25.5209,41.95365 L12.5979,29.02965 L6.4099,35.21715 C6.1704,35.45665 6.1704,35.84615 6.4099,36.08565 L9.1494,38.82515 C9.3814,39.05615 9.7844,39.05715 10.0164,38.82515 C10.5019,38.34065 11.1389,38.09865 11.7754,38.09865 M18.8994,50.19215 C18.2629,50.19215 17.6259,49.95015 17.1409,49.46515 L14.4014,46.72565 C13.9314,46.25565 13.6729,45.63115 13.6729,44.96715 C13.6729,44.30315 13.9314,43.67865 14.4014,43.20915 C14.5169,43.09315 14.5809,42.93965 14.5809,42.77565 C14.5809,42.61115 14.5169,42.45765 14.4014,42.34115 L12.2094,40.14965 C11.9704,39.91115 11.5804,39.91065 11.3414,40.15015 C10.8719,40.61915 10.2474,40.87815 9.5834,40.87815 C8.9194,40.87815 8.2949,40.61915 7.8254,40.14965 L5.0854,37.40965 C4.1159,36.44015 4.1159,34.86265 5.0854,33.89315 L11.9354,27.04365 C12.3009,26.67715 12.8944,26.67715 13.2599,27.04365 L27.5074,41.29165 C27.8729,41.65715 27.8729,42.25015 27.5074,42.61565 L20.6579,49.46515 C20.1729,49.95015 19.5359,50.19215 18.8994,50.19215" id="Fill-273" fill="#FFFFFF"></path>
            <path d="M44.05665,15.4248 C43.81715,15.4248 43.57715,15.3333 43.39465,15.1503 L39.42915,11.1848 C39.06365,10.8188 39.06365,10.2263 39.42915,9.8603 C39.79465,9.4943 40.38815,9.4943 40.75365,9.8603 L44.71865,13.8263 C45.08465,14.1918 45.08465,14.7848 44.71865,15.1503 C44.53615,15.3333 44.29615,15.4248 44.05665,15.4248" id="Fill-275" fill="#FFFFFF"></path>
            <path d="M42.8491,57.43065 C45.1076,58.68515 47.3981,59.06515 49.3816,58.49865 C51.3751,57.92865 53.1011,56.41365 54.3491,54.16865 L53.4916,54.22415 L51.0411,56.21865 C50.7791,56.43265 50.4266,56.49865 50.1051,56.39615 L47.6636,55.61465 L46.3931,57.40315 C46.1221,57.78465 45.6236,57.92815 45.1916,57.74665 L43.2206,56.92165 L42.8491,57.43065 Z M47.5041,60.75515 C45.3366,60.75515 43.0431,60.00565 40.8481,58.55265 C40.6201,58.40165 40.4636,58.16415 40.4156,57.89565 C40.3671,57.62665 40.4311,57.34915 40.5921,57.12865 L42.0711,55.10515 C42.3441,54.73165 42.8371,54.59265 43.2651,54.77265 L45.2256,55.59265 L46.4566,53.86015 C46.7091,53.50465 47.1616,53.35565 47.5766,53.48665 L50.1981,54.32565 L52.4771,52.47115 C52.6381,52.33965 52.8366,52.26215 53.0441,52.24865 L55.9221,52.06315 C56.2636,52.03465 56.5976,52.19765 56.7986,52.47765 C57.0001,52.75765 57.0431,53.12165 56.9121,53.44065 C55.4181,57.08315 52.9391,59.56215 49.9316,60.42115 C49.1496,60.64515 48.3361,60.75515 47.5041,60.75515 L47.5041,60.75515 Z" id="Fill-277" fill="#FFFFFF"></path>
            <path d="M48.4927,37.68895 C47.1357,37.68895 45.5382,37.91845 43.6552,38.45645 C36.7982,40.41595 35.2317,43.84745 35.4172,46.83745 L37.1712,45.43645 C37.3707,45.27845 37.6247,45.19845 37.8762,45.22145 L41.3317,45.50045 L43.2697,43.72345 C43.5017,43.51145 43.8197,43.42095 44.1297,43.47795 L46.7132,43.96245 L49.5012,41.89995 C49.7597,41.70895 50.0947,41.65395 50.4002,41.75095 L53.0177,42.58845 L54.9537,40.98845 C53.9407,39.26095 52.0432,37.68895 48.4927,37.68895 M34.7077,49.68295 C34.6012,49.68295 34.4942,49.66595 34.3907,49.63145 C34.0687,49.52395 33.8237,49.26095 33.7392,48.93245 C32.2567,43.17745 35.6707,38.65745 43.1057,36.53345 C49.9807,34.56995 54.9577,36.09495 57.1222,40.82995 C57.3102,41.24145 57.1982,41.72795 56.8497,42.01645 L53.8707,44.47845 C53.6082,44.69545 53.2527,44.76345 52.9287,44.65995 L50.2787,43.81195 L47.5522,45.82945 C47.3292,45.99495 47.0472,46.05945 46.7732,46.00895 L44.2527,45.53595 L42.3617,47.26945 C42.1567,47.45695 41.8807,47.55495 41.6057,47.52895 L38.1097,47.24695 L35.3317,49.46495 C35.1517,49.60795 34.9312,49.68295 34.7077,49.68295" id="Fill-279" fill="#FFFFFF"></path>
            <path d="M43.3799,38.49465 C43.0349,38.49465 42.6994,38.31565 42.5144,37.99465 C41.3774,36.02465 40.1349,31.67665 43.5684,29.32715 C44.0249,29.01515 44.6464,29.13215 44.9584,29.58765 C45.2704,30.04365 45.1539,30.66565 44.6984,30.97765 C41.9344,32.86865 44.1519,36.82965 44.2474,36.99715 C44.5209,37.47615 44.3559,38.08715 43.8774,38.36115 C43.7204,38.45165 43.5489,38.49465 43.3799,38.49465" id="Fill-281" fill="#FFFFFF"></path>
            <path d="M53.1084,54.2466 C52.8469,54.2466 52.5854,54.1446 52.3894,53.9416 C46.4449,47.7906 50.4079,42.7511 50.4489,42.7011 C50.7964,42.2721 51.4274,42.2076 51.8549,42.5546 C52.2824,42.9016 52.3489,43.5276 52.0059,43.9561 C51.8779,44.1191 49.1589,47.7206 53.8274,52.5516 C54.2114,52.9486 54.2009,53.5821 53.8034,53.9656 C53.6094,54.1531 53.3589,54.2466 53.1084,54.2466" id="Fill-283" fill="#FFFFFF"></path>
            <path d="M44.3506,56.7495 C44.2451,56.7495 44.1376,56.7325 44.0321,56.6975 C43.5086,56.5215 43.2271,55.9545 43.4026,55.4305 C43.4066,55.418 43.9121,53.857 43.6961,52.0785 C43.4246,49.8395 42.1426,48.266 39.8856,47.4035 C39.3696,47.206 39.1111,46.628 39.3086,46.1125 C39.5061,45.596 40.0871,45.339 40.5996,45.535 C46.3721,47.742 46.1971,53.389 45.2986,56.0675 C45.1581,56.4855 44.7686,56.7495 44.3506,56.7495" id="Fill-285" fill="#FFFFFF"></path>
        </g>
    </g>
</svg>