<?xml version="1.0" encoding="UTF-8"?>
<svg width="70px" height="70px" viewBox="0 0 70 70" version="1.1" xmlns="http://www.w3.org/2000/svg" xmlns:xlink="http://www.w3.org/1999/xlink">
    <!-- Generator: Sketch 64 (93537) - https://sketch.com -->
    <title>firm</title>
    <desc>Created with Sketch.</desc>
    <g id="Page-1" stroke="none" stroke-width="1" fill="none" fill-rule="evenodd">
        <g id="firm">
            <path d="M70,35 C70,54.33 54.33,70 35,70 C15.67,70 0,54.33 0,35 C0,15.67 15.67,0 35,0 C54.33,0 70,15.67 70,35" id="Fill-21" fill="#BFB999"></path>
            <path d="M35,0 C15.67,0 0,15.67 0,35 C0,54.33 15.67,70 35,70 C54.33,70 70,54.33 70,35 C70,15.67 54.33,0 35,0 M35,2 C53.1965,2 68,16.8035 68,35 C68,53.1965 53.1965,68 35,68 C16.8035,68 2,53.1965 2,35 C2,16.8035 16.8035,2 35,2" id="Fill-23" fill="#FFFFFF"></path>
            <path d="M55,59.0796 C54.448,59.0796 54,58.6316 54,58.0796 L54,16.0001 L16,16.0001 L16,58.0796 C16,58.6316 15.552,59.0796 15,59.0796 C14.448,59.0796 14,58.6316 14,58.0796 L14,15.0001 C14,14.4476 14.448,14.0001 15,14.0001 L55,14.0001 C55.552,14.0001 56,14.4476 56,15.0001 L56,58.0796 C56,58.6316 55.552,59.0796 55,59.0796" id="Fill-49" fill="#FFFFFF"></path>
            <path d="M46,15.8867 C45.448,15.8867 45,15.4387 45,14.8867 L45,10.1927 L25,10.1927 L25,14.8867 C25,15.4387 24.552,15.8867 24,15.8867 C23.448,15.8867 23,15.4387 23,14.8867 L23,9.1927 C23,8.6407 23.448,8.1927 24,8.1927 L46,8.1927 C46.552,8.1927 47,8.6407 47,9.1927 L47,14.8867 C47,15.4387 46.552,15.8867 46,15.8867" id="Fill-51" fill="#FFFFFF"></path>
            <path d="M42.8999,66.8867 C42.3479,66.8867 41.8999,66.4387 41.8999,65.8867 L41.8999,51.0002 L27.0999,51.0002 L27.0999,65.8867 C27.0999,66.4387 26.6524,66.8867 26.0999,66.8867 C25.5479,66.8867 25.0999,66.4387 25.0999,65.8867 L25.0999,50.0002 C25.0999,49.4477 25.5479,49.0002 26.0999,49.0002 L42.8999,49.0002 C43.4519,49.0002 43.8999,49.4477 43.8999,50.0002 L43.8999,65.8867 C43.8999,66.4387 43.4519,66.8867 42.8999,66.8867" id="Fill-53" fill="#FFFFFF"></path>
            <path d="M65.5,32.7993 L55.1805,32.7993 C54.6285,32.7993 54.1805,32.3513 54.1805,31.7993 C54.1805,31.2473 54.6285,30.7993 55.1805,30.7993 L65.5,30.7993 C66.052,30.7993 66.5,31.2473 66.5,31.7993 C66.5,32.3513 66.052,32.7993 65.5,32.7993" id="Fill-55" fill="#FFFFFF"></path>
            <path d="M43,56.2993 L26.5,56.2993 C25.948,56.2993 25.5,55.8513 25.5,55.2993 C25.5,54.7473 25.948,54.2993 26.5,54.2993 L43,54.2993 C43.552,54.2993 44,54.7473 44,55.2993 C44,55.8513 43.552,56.2993 43,56.2993" id="Fill-57" fill="#FFFFFF"></path>
            <path d="M15,32.7993 L4.6805,32.7993 C4.1285,32.7993 3.6805,32.3513 3.6805,31.7993 C3.6805,31.2473 4.1285,30.7993 4.6805,30.7993 L15,30.7993 C15.552,30.7993 16,31.2473 16,31.7993 C16,32.3513 15.552,32.7993 15,32.7993" id="Fill-59" fill="#FFFFFF"></path>
            <path d="M20.5,26 C19.948,26 19.5,25.552 19.5,25 L19.5,21 C19.5,20.448 19.948,20 20.5,20 C21.052,20 21.5,20.448 21.5,21 L21.5,25 C21.5,25.552 21.052,26 20.5,26" id="Fill-61" fill="#FFFFFF"></path>
            <path d="M26.1001,26 C25.5481,26 25.1001,25.552 25.1001,25 L25.1001,21 C25.1001,20.448 25.5481,20 26.1001,20 C26.6521,20 27.1001,20.448 27.1001,21 L27.1001,25 C27.1001,25.552 26.6521,26 26.1001,26" id="Fill-63" fill="#FFFFFF"></path>
            <path d="M31.7002,26 C31.1482,26 30.7002,25.552 30.7002,25 L30.7002,21 C30.7002,20.448 31.1482,20 31.7002,20 C32.2522,20 32.7002,20.448 32.7002,21 L32.7002,25 C32.7002,25.552 32.2522,26 31.7002,26" id="Fill-65" fill="#FFFFFF"></path>
            <path d="M37.2998,26 C36.7478,26 36.2998,25.552 36.2998,25 L36.2998,21 C36.2998,20.448 36.7478,20 37.2998,20 C37.8518,20 38.2998,20.448 38.2998,21 L38.2998,25 C38.2998,25.552 37.8518,26 37.2998,26" id="Fill-67" fill="#FFFFFF"></path>
            <path d="M42.8999,26 C42.3479,26 41.8999,25.552 41.8999,25 L41.8999,21 C41.8999,20.448 42.3479,20 42.8999,20 C43.4519,20 43.8999,20.448 43.8999,21 L43.8999,25 C43.8999,25.552 43.4519,26 42.8999,26" id="Fill-69" fill="#FFFFFF"></path>
            <path d="M48.5,26 C47.948,26 47.5,25.552 47.5,25 L47.5,21 C47.5,20.448 47.948,20 48.5,20 C49.052,20 49.5,20.448 49.5,21 L49.5,25 C49.5,25.552 49.052,26 48.5,26" id="Fill-71" fill="#FFFFFF"></path>
            <path d="M20.5,36 C19.948,36 19.5,35.552 19.5,35 L19.5,31 C19.5,30.448 19.948,30 20.5,30 C21.052,30 21.5,30.448 21.5,31 L21.5,35 C21.5,35.552 21.052,36 20.5,36" id="Fill-73" fill="#FFFFFF"></path>
            <path d="M26.1001,36 C25.5481,36 25.1001,35.552 25.1001,35 L25.1001,31 C25.1001,30.448 25.5481,30 26.1001,30 C26.6521,30 27.1001,30.448 27.1001,31 L27.1001,35 C27.1001,35.552 26.6521,36 26.1001,36" id="Fill-75" fill="#FFFFFF"></path>
            <path d="M31.7002,36 C31.1482,36 30.7002,35.552 30.7002,35 L30.7002,31 C30.7002,30.448 31.1482,30 31.7002,30 C32.2522,30 32.7002,30.448 32.7002,31 L32.7002,35 C32.7002,35.552 32.2522,36 31.7002,36" id="Fill-77" fill="#FFFFFF"></path>
            <path d="M37.2998,36 C36.7478,36 36.2998,35.552 36.2998,35 L36.2998,31 C36.2998,30.448 36.7478,30 37.2998,30 C37.8518,30 38.2998,30.448 38.2998,31 L38.2998,35 C38.2998,35.552 37.8518,36 37.2998,36" id="Fill-79" fill="#FFFFFF"></path>
            <path d="M42.8999,36 C42.3479,36 41.8999,35.552 41.8999,35 L41.8999,31 C41.8999,30.448 42.3479,30 42.8999,30 C43.4519,30 43.8999,30.448 43.8999,31 L43.8999,35 C43.8999,35.552 43.4519,36 42.8999,36" id="Fill-81" fill="#FFFFFF"></path>
            <path d="M48.5,36 C47.948,36 47.5,35.552 47.5,35 L47.5,31 C47.5,30.448 47.948,30 48.5,30 C49.052,30 49.5,30.448 49.5,31 L49.5,35 C49.5,35.552 49.052,36 48.5,36" id="Fill-83" fill="#FFFFFF"></path>
            <path d="M20.5,46 C19.948,46 19.5,45.552 19.5,45 L19.5,41 C19.5,40.448 19.948,40 20.5,40 C21.052,40 21.5,40.448 21.5,41 L21.5,45 C21.5,45.552 21.052,46 20.5,46" id="Fill-85" fill="#FFFFFF"></path>
            <path d="M26.1001,46 C25.5481,46 25.1001,45.552 25.1001,45 L25.1001,41 C25.1001,40.448 25.5481,40 26.1001,40 C26.6521,40 27.1001,40.448 27.1001,41 L27.1001,45 C27.1001,45.552 26.6521,46 26.1001,46" id="Fill-87" fill="#FFFFFF"></path>
            <path d="M31.7002,46 C31.1482,46 30.7002,45.552 30.7002,45 L30.7002,41 C30.7002,40.448 31.1482,40 31.7002,40 C32.2522,40 32.7002,40.448 32.7002,41 L32.7002,45 C32.7002,45.552 32.2522,46 31.7002,46" id="Fill-89" fill="#FFFFFF"></path>
            <path d="M37.2998,46 C36.7478,46 36.2998,45.552 36.2998,45 L36.2998,41 C36.2998,40.448 36.7478,40 37.2998,40 C37.8518,40 38.2998,40.448 38.2998,41 L38.2998,45 C38.2998,45.552 37.8518,46 37.2998,46" id="Fill-91" fill="#FFFFFF"></path>
            <path d="M42.8999,46 C42.3479,46 41.8999,45.552 41.8999,45 L41.8999,41 C41.8999,40.448 42.3479,40 42.8999,40 C43.4519,40 43.8999,40.448 43.8999,41 L43.8999,45 C43.8999,45.552 43.4519,46 42.8999,46" id="Fill-93" fill="#FFFFFF"></path>
            <path d="M48.5,46 C47.948,46 47.5,45.552 47.5,45 L47.5,41 C47.5,40.448 47.948,40 48.5,40 C49.052,40 49.5,40.448 49.5,41 L49.5,45 C49.5,45.552 49.052,46 48.5,46" id="Fill-95" fill="#FFFFFF"></path>
            <path d="M20.5,56 C19.948,56 19.5,55.552 19.5,55 L19.5,51 C19.5,50.448 19.948,50 20.5,50 C21.052,50 21.5,50.448 21.5,51 L21.5,55 C21.5,55.552 21.052,56 20.5,56" id="Fill-97" fill="#FFFFFF"></path>
            <path d="M48.5,56 C47.948,56 47.5,55.552 47.5,55 L47.5,51 C47.5,50.448 47.948,50 48.5,50 C49.052,50 49.5,50.448 49.5,51 L49.5,55 C49.5,55.552 49.052,56 48.5,56" id="Fill-99" fill="#FFFFFF"></path>
        </g>
    </g>
</svg>