<?xml version="1.0" encoding="UTF-8"?>
<svg width="70px" height="70px" viewBox="0 0 70 70" version="1.1" xmlns="http://www.w3.org/2000/svg" xmlns:xlink="http://www.w3.org/1999/xlink">
    <!-- Generator: Sketch 64 (93537) - https://sketch.com -->
    <title>hongkong</title>
    <desc>Created with Sketch.</desc>
    <g id="Page-1" stroke="none" stroke-width="1" fill="none" fill-rule="evenodd">
        <g id="hongkong">
            <path d="M70,35 C70,54.33 54.33,70 35,70 C15.67,70 0,54.33 0,35 C0,15.67 15.67,0 35,0 C54.33,0 70,15.67 70,35" id="Fill-241" fill="#99BFB9"></path>
            <path d="M35,0 C15.67,0 0,15.67 0,35 C0,54.33 15.67,70 35,70 C54.33,70 70,54.33 70,35 C70,15.67 54.33,0 35,0 M35,2 C53.1965,2 68,16.8035 68,35 C68,53.1965 53.1965,68 35,68 C16.8035,68 2,53.1965 2,35 C2,16.8035 16.8035,2 35,2" id="Fill-243" fill="#FFFFFF"></path>
            <path d="M13.9785,57.95115 C13.921,57.95115 13.863,57.94615 13.8035,57.93615 C13.26,57.83965 12.897,57.32115 12.9925,56.77715 L20.478,14.32615 C20.5735,13.78215 21.088,13.41815 21.6365,13.51515 C22.1805,13.61115 22.5435,14.12965 22.4475,14.67365 L14.9625,57.12515 C14.877,57.60965 14.455,57.95115 13.9785,57.95115" id="Fill-245" fill="#FFFFFF"></path>
            <path d="M17.45655,42.98 L53.70555,42.98 L58.16305,17.7 L21.91355,17.7 L17.45655,42.98 Z M54.54455,44.98 L16.26455,44.98 C15.96905,44.98 15.68855,44.849 15.49855,44.6225 C15.30855,44.3965 15.22855,44.0975 15.27955,43.806 L20.09005,16.5265 C20.17455,16.049 20.58955,15.7 21.07455,15.7 L59.35505,15.7 C59.65055,15.7 59.93105,15.831 60.12105,16.0575 C60.31105,16.2835 60.39105,16.5825 60.34005,16.874 L55.52955,44.154 C55.44505,44.6315 55.02955,44.98 54.54455,44.98 L54.54455,44.98 Z" id="Fill-247" fill="#FFFFFF"></path>
            <path d="M37.5713,29.9575 C37.5713,29.9575 36.6108,28.2625 38.3148,26.812 C39.2058,26.053 40.1853,26.095 41.0593,24.2075 C41.9338,22.32 40.6278,22.264 41.1258,20.891 C41.6238,19.5185 42.4873,19.489 42.4873,19.489 C42.4873,19.489 39.6443,19.2345 37.6743,21.009 C35.7048,22.783 34.1003,25.901 35.4158,28.015 C36.3653,29.5395 37.3608,30.0145 37.3608,30.0145 L37.5713,29.9575 Z" id="Fill-249" fill="#FFFFFF"></path>
            <path d="M38.03565,30.5044 C38.03565,30.5044 39.55465,28.9459 41.25265,29.8244 C42.13965,30.2834 42.26465,31.2264 44.24615,31.1039 C46.22815,30.9809 46.06165,29.7234 47.47915,29.5039 C48.89715,29.2854 49.07115,30.0834 49.07115,30.0834 C49.07115,30.0834 48.83765,27.2769 46.78115,26.3109 C44.72415,25.3454 41.42415,25.3959 39.59265,27.6964 C38.27265,29.3544 37.94415,30.3349 37.94415,30.3349 L38.03565,30.5044 Z" id="Fill-251" fill="#FFFFFF"></path>
            <path d="M37.0127,30.23485 C37.0127,30.23485 34.9982,30.77835 34.3182,28.98635 C33.9632,28.04935 34.4402,27.11285 32.9592,26.07185 C31.4772,25.03085 30.8402,26.27985 29.7017,25.65535 C28.5627,25.03085 28.9177,24.19835 28.9177,24.19835 C28.9177,24.19835 27.3997,26.90435 28.2817,28.98635 C29.1637,31.06785 31.5397,32.94135 34.2207,31.90035 C36.1542,31.14985 36.9757,30.44335 36.9757,30.44335 L37.0127,30.23485 Z" id="Fill-253" fill="#FFFFFF"></path>
            <path d="M37.67385,31.15525 C37.67385,31.15525 39.40285,31.88175 38.75485,33.91175 C38.41635,34.97225 37.50285,35.52975 37.87735,37.36575 C38.25135,39.20125 39.46935,38.45725 39.86585,39.70975 C40.26285,40.96225 39.49885,41.49975 39.49885,41.49975 C39.49885,41.49975 42.23285,39.97325 42.92135,37.55975 C43.60985,35.14625 43.13785,32.01825 40.63835,31.33775 C38.83635,30.84725 37.82935,30.98925 37.82935,30.98925 L37.67385,31.15525 Z" id="Fill-255" fill="#FFFFFF"></path>
            <path d="M36.8838,31.0742 C36.8838,31.0742 36.3908,33.0637 34.3093,33.3892 C33.2213,33.5597 32.5548,32.9472 30.7953,34.1587 C29.0363,35.3702 29.9248,36.1872 28.7428,37.1487 C27.5608,38.1102 26.9333,37.6312 26.9333,37.6312 C26.9333,37.6312 28.7888,39.5312 31.2528,39.0652 C33.7178,38.5997 36.7368,36.6927 37.0848,33.9897 C37.3363,32.0412 37.0668,31.1452 37.0668,31.1452 L36.8838,31.0742 Z" id="Fill-257" fill="#FFFFFF"></path>
            <polygon id="Fill-259" fill="#99BFB9" points="31.458 28.0708 32.189 27.7708 31.7275 28.4268 32.1245 28.9788 31.416 28.8523 30.9305 29.4938 30.9545 28.7598 30.2575 28.6033 30.9805 28.2763 31.035 27.5388"></polygon>
            <polygon id="Fill-261" fill="#99BFB9" points="38.8506 23.3325 39.5816 23.033 39.1201 23.6885 39.5171 24.241 38.8086 24.1145 38.3231 24.7555 38.3471 24.0215 37.6501 23.865 38.3731 23.5385 38.4276 22.801"></polygon>
            <polygon id="Fill-263" fill="#99BFB9" points="44.45945 28.1206 45.19045 27.8206 44.72895 28.4766 45.12595 29.0286 44.41745 28.9021 43.93195 29.5436 43.95595 28.8096 43.25895 28.6531 43.98195 28.3261 44.03645 27.5886"></polygon>
            <polygon id="Fill-265" fill="#99BFB9" points="32.4868 35.61425 33.2183 35.31475 32.7563 35.97025 33.1533 36.52275 32.4453 36.39575 31.9593 37.03725 31.9833 36.30325 31.2863 36.14675 32.0093 35.81975 32.0638 35.08275"></polygon>
            <polygon id="Fill-267" fill="#99BFB9" points="40.56885 35.82225 41.29985 35.52275 40.83785 36.17875 41.23485 36.73075 40.52685 36.60425 40.04085 37.24575 40.06535 36.51175 39.36835 36.35475 40.09135 36.02825 40.14585 35.29075"></polygon>
        </g>
    </g>
</svg>