<?xml version="1.0" encoding="UTF-8"?>
<svg width="70px" height="70px" viewBox="0 0 70 70" version="1.1" xmlns="http://www.w3.org/2000/svg" xmlns:xlink="http://www.w3.org/1999/xlink">
    <!-- Generator: Sketch 64 (93537) - https://sketch.com -->
    <title>man</title>
    <desc>Created with Sketch.</desc>
    <g id="Page-1" stroke="none" stroke-width="1" fill="none" fill-rule="evenodd">
        <g id="man">
            <path d="M70,35 C70,54.33 54.33,70 35,70 C15.67,70 0,54.33 0,35 C0,15.67 15.67,0 35,0 C54.33,0 70,15.67 70,35" id="Fill-25" fill="#BF9F99"></path>
            <path d="M35,0 C15.67,0 0,15.67 0,35 C0,54.33 15.67,70 35,70 C54.33,70 70,54.33 70,35 C70,15.67 54.33,0 35,0 M35,2 C53.1965,2 68,16.8035 68,35 C68,53.1965 53.1965,68 35,68 C16.8035,68 2,53.1965 2,35 C2,16.8035 16.8035,2 35,2" id="Fill-27" fill="#FFFFFF"></path>
            <path d="M35,8 C31.619,8 28.487,9.3615 26.1805,11.8335 C23.8745,14.3055 22.733,17.5245 22.9675,20.897 L23.7005,31.4585 C24.1115,37.3695 29.0745,42 35,42 C40.9255,42 45.8885,37.3695 46.2995,31.4585 L47.0325,20.897 C47.267,17.5245 46.1255,14.3055 43.8195,11.8335 C41.513,9.3615 38.381,8 35,8 M35,44 C28.0285,44 22.1885,38.552 21.7055,31.597 L20.972,21.0355 C20.699,17.1035 22.0295,13.351 24.7185,10.469 C27.407,7.5875 31.0585,6 35,6 C38.9415,6 42.593,7.5875 45.2815,10.469 C47.9705,13.351 49.301,17.1035 49.028,21.0355 L48.2945,31.597 C47.8115,38.552 41.9715,44 35,44" id="Fill-101" fill="#FFFFFF"></path>
            <path d="M48.15725,29.34275 C47.60525,29.34275 47.15725,28.89475 47.15725,28.34275 C47.15725,27.79075 47.60525,27.34275 48.15725,27.34275 C49.44925,27.34275 50.50025,26.29175 50.50025,24.99975 C50.50025,23.70775 49.44925,22.65725 48.15725,22.65725 C47.60525,22.65725 47.15725,22.20925 47.15725,21.65725 C47.15725,21.10475 47.60525,20.65725 48.15725,20.65725 C50.55175,20.65725 52.50025,22.60525 52.50025,24.99975 C52.50025,27.39475 50.55175,29.34275 48.15725,29.34275" id="Fill-103" fill="#FFFFFF"></path>
            <path d="M21.84275,29.34275 C19.44825,29.34275 17.49975,27.39475 17.49975,24.99975 C17.49975,22.60525 19.44825,20.65725 21.84275,20.65725 C22.39475,20.65725 22.84275,21.10475 22.84275,21.65725 C22.84275,22.20925 22.39475,22.65725 21.84275,22.65725 C20.55075,22.65725 19.49975,23.70775 19.49975,24.99975 C19.49975,26.29175 20.55075,27.34275 21.84275,27.34275 C22.39475,27.34275 22.84275,27.79075 22.84275,28.34275 C22.84275,28.89475 22.39475,29.34275 21.84275,29.34275" id="Fill-105" fill="#FFFFFF"></path>
            <path d="M21.999,20.5796 C21.5475,20.5796 21.1375,20.2716 21.028,19.8131 C20.899,19.2771 21.2285,18.7376 21.764,18.6081 C21.935,18.5656 25.6775,17.5901 26.524,13.7831 C26.585,13.5066 26.7605,13.2696 27.0075,13.1306 C27.253,12.9906 27.546,12.9616 27.816,13.0511 C27.9025,13.0796 36.5005,15.8816 42.0525,13.1056 C42.3485,12.9586 42.697,12.9656 42.985,13.1256 C43.2735,13.2856 43.4645,13.5776 43.4955,13.9056 C43.5405,14.3481 44.0735,18.2501 47.971,18.1461 C48.524,18.1271 48.984,18.5646 48.9995,19.1166 C49.0155,19.6686 48.581,20.1291 48.029,20.1451 C44.195,20.2711 42.3935,17.5656 41.7625,15.4056 C36.765,17.2506 30.573,15.8981 28.1795,15.2441 C26.6745,19.4396 22.4265,20.5056 22.2335,20.5516 C22.155,20.5706 22.076,20.5796 21.999,20.5796" id="Fill-107" fill="#FFFFFF"></path>
            <path d="M42.75,48 C42.198,48 41.75,47.552 41.75,47 L41.75,40.5 C41.75,39.948 42.198,39.5 42.75,39.5 C43.302,39.5 43.75,39.948 43.75,40.5 L43.75,47 C43.75,47.552 43.302,48 42.75,48" id="Fill-117" fill="#FFFFFF"></path>
            <path d="M27.25,48 C26.698,48 26.25,47.552 26.25,47 L26.25,40.5 C26.25,39.948 26.698,39.5 27.25,39.5 C27.802,39.5 28.25,39.948 28.25,40.5 L28.25,47 C28.25,47.552 27.802,48 27.25,48" id="Fill-119" fill="#FFFFFF"></path>
            <path d="M26.5957,49.8052 L32.0527,54.8157 L34.4047,51.2877 C34.5902,51.0092 34.9022,50.8422 35.2367,50.8422 C35.5712,50.8422 35.8832,51.0092 36.0687,51.2877 L38.3977,54.7802 L43.4297,49.8227 L42.3637,48.3157 C37.5442,49.3477 32.4482,49.3777 27.6142,48.4012 L26.5957,49.8052 Z M38.2367,57.3422 C38.2027,57.3422 38.1687,57.3402 38.1347,57.3367 C37.8377,57.3067 37.5702,57.1452 37.4047,56.8972 L35.2367,53.6452 L33.0687,56.8972 C32.9067,57.1402 32.6467,57.3002 32.3562,57.3352 C32.0642,57.3702 31.7752,57.2757 31.5607,57.0792 L24.5867,50.6757 C24.2127,50.3322 24.1557,49.7627 24.4537,49.3517 L26.3767,46.7012 C26.6107,46.3782 27.0117,46.2267 27.4022,46.3122 C32.3552,47.4082 37.6297,47.3772 42.5672,46.2207 C42.9627,46.1282 43.3772,46.2847 43.6117,46.6167 L45.5532,49.3612 C45.8357,49.7612 45.7877,50.3077 45.4387,50.6512 L38.9387,57.0547 C38.7507,57.2397 38.4982,57.3422 38.2367,57.3422 L38.2367,57.3422 Z" id="Fill-121" fill="#FFFFFF"></path>
            <path d="M58.17625,55.73585 C57.83975,55.73585 57.51125,55.56635 57.32275,55.25835 C56.17675,53.38885 54.27725,52.11785 52.11125,51.77085 L44.07925,50.48735 C43.53375,50.40035 43.16225,49.88785 43.24925,49.34235 C43.33675,48.79685 43.84975,48.42385 44.39475,48.51285 L52.42675,49.79635 C55.17075,50.23485 57.57675,51.84485 59.02775,54.21335 C59.31625,54.68385 59.16825,55.29985 58.69775,55.58835 C58.53475,55.68835 58.35425,55.73585 58.17625,55.73585" id="Fill-123" fill="#FFFFFF"></path>
            <path d="M11.44045,55.5591 C11.25295,55.5591 11.06345,55.5066 10.89495,55.3966 C10.43195,55.0946 10.30245,54.4751 10.60395,54.0126 C12.07695,51.7561 14.44995,50.2261 17.11395,49.8166 L25.58445,48.5116 C26.12945,48.4271 26.64095,48.8016 26.72495,49.3476 C26.80895,49.8936 26.43495,50.4041 25.88895,50.4881 L17.41795,51.7931 C15.31495,52.1166 13.44195,53.3241 12.27895,55.1056 C12.08695,55.3996 11.76695,55.5591 11.44045,55.5591" id="Fill-125" fill="#FFFFFF"></path>
            <path d="M37.999,66 C37.544,66 37.1325,65.6875 37.0255,65.225 L35.7045,59.5 L34.7955,59.5 L33.4745,65.225 C33.3505,65.763 32.8125,66.0965 32.275,65.9745 C31.737,65.85 31.4015,65.3135 31.5255,64.775 L33.0255,58.275 C33.1305,57.8215 33.534,57.5 34,57.5 L36.5,57.5 C36.966,57.5 37.3695,57.8215 37.4745,58.275 L38.9745,64.775 C39.0985,65.3135 38.763,65.85 38.225,65.9745 C38.1495,65.9915 38.0735,66 37.999,66" id="Fill-127" fill="#FFFFFF"></path>
        </g>
    </g>
</svg>