<?xml version="1.0" encoding="UTF-8"?>
<svg width="74px" height="74px" viewBox="0 0 74 74" version="1.1" xmlns="http://www.w3.org/2000/svg" xmlns:xlink="http://www.w3.org/1999/xlink">
    <!-- Generator: Sketch 63.1 (92452) - https://sketch.com -->
    <title>new zealand</title>
    <desc>Created with Sketch.</desc>
    <g id="Page-1" stroke="none" stroke-width="1" fill="none" fill-rule="evenodd">
        <g id="new-zealand" transform="translate(2.000000, 2.000000)">
            <circle id="Oval-Copy-7" stroke="#FFFFFF" stroke-width="2" fill="#99BFB9" cx="35" cy="35" r="36"></circle>
            <g id="Group-10-Copy" transform="translate(13.000000, 14.000000)">
                <line x1="8.46265" y1="0.5" x2="0.70415" y2="44.5" id="Stroke-3" stroke="#FFFFFF" stroke-width="2" stroke-linecap="round" stroke-linejoin="round"></line>
                <polygon id="Stroke-5" stroke="#FFFFFF" stroke-width="2" stroke-linecap="round" stroke-linejoin="round" points="41.54445 29.98 3.26445 29.98 8.07495 2.7 46.35495 2.7"></polygon>
                <polygon id="Stroke-7" stroke="#FFFFFF" stroke-width="2" stroke-linecap="round" stroke-linejoin="round" points="24.58985 16.33985 5.66985 16.33985 8.07485 2.70035 26.99485 2.70035"></polygon>
                <line x1="8.0747" y1="2.7002" x2="24.5897" y2="16.3397" id="Stroke-9" stroke="#FFFFFF" stroke-width="2" stroke-linecap="round" stroke-linejoin="round"></line>
                <line x1="26.99465" y1="2.7002" x2="5.66965" y2="16.3397" id="Stroke-11" stroke="#FFFFFF" stroke-width="2" stroke-linecap="round" stroke-linejoin="round"></line>
                <line x1="17.5349" y1="2.7002" x2="15.1294" y2="16.3397" id="Stroke-13" stroke="#FFFFFF" stroke-width="2" stroke-linecap="round" stroke-linejoin="round"></line>
                <line x1="6.8723" y1="9.52" x2="25.7923" y2="9.52" id="Stroke-15" stroke="#FFFFFF" stroke-width="2" stroke-linecap="round" stroke-linejoin="round"></line>
                <path d="M30.34865,16.1201 C30.24115,16.7276 29.66215,17.2201 29.05465,17.2201 C28.44715,17.2201 28.04165,16.7276 28.14865,16.1201 C28.25565,15.5126 28.83515,15.0201 29.44265,15.0201 C30.04965,15.0201 30.45565,15.5126 30.34865,16.1201" id="Fill-17" fill="#FFFFFF"></path>
                <path d="M32.6533,24.25975 C32.5458,24.86775 31.9668,25.35975 31.3593,25.35975 C30.7518,25.35975 30.3463,24.86775 30.4533,24.25975 C30.5603,23.65225 31.1398,23.16025 31.7473,23.16025 C32.3543,23.16025 32.7603,23.65225 32.6533,24.25975" id="Fill-19" fill="#FFFFFF"></path>
                <path d="M35.3169,10.3999 C35.2099,11.0074 34.6309,11.4999 34.0229,11.4999 C33.4154,11.4999 33.0099,11.0074 33.1174,10.3999 C33.2239,9.7924 33.8039,9.2999 34.4109,9.2999 C35.0184,9.2999 35.4244,9.7924 35.3169,10.3999" id="Fill-21" fill="#FFFFFF"></path>
                <path d="M38.26855,16.1201 C38.16155,16.7276 37.58205,17.2201 36.97455,17.2201 C36.36705,17.2201 35.96155,16.7276 36.06855,16.1201 C36.17555,15.5126 36.75505,15.0201 37.36255,15.0201 C37.97005,15.0201 38.37555,15.5126 38.26855,16.1201" id="Fill-23" fill="#FFFFFF"></path>
            </g>
        </g>
    </g>
</svg>