<?xml version="1.0" encoding="UTF-8"?>
<svg width="70px" height="70px" viewBox="0 0 70 70" version="1.1" xmlns="http://www.w3.org/2000/svg" xmlns:xlink="http://www.w3.org/1999/xlink">
    <!-- Generator: Sketch 64 (93537) - https://sketch.com -->
    <title>new-zealand</title>
    <desc>Created with Sketch.</desc>
    <g id="Page-1" stroke="none" stroke-width="1" fill="none" fill-rule="evenodd">
        <g id="new-zealand">
            <path d="M70,35 C70,54.33 54.33,70 35,70 C15.67,70 0,54.33 0,35 C0,15.67 15.67,0 35,0 C54.33,0 70,15.67 70,35" id="Fill-13" fill="#99BFB9"></path>
            <path d="M35,0 C15.67,0 0,15.67 0,35 C0,54.33 15.67,70 35,70 C54.33,70 70,54.33 70,35 C70,15.67 54.33,0 35,0 M35,2 C53.1965,2 68,16.8035 68,35 C68,53.1965 53.1965,68 35,68 C16.8035,68 2,53.1965 2,35 C2,16.8035 16.8035,2 35,2" id="Fill-15" fill="#FFFFFF"></path>
            <path d="M14.021,57.70995 C13.9635,57.70995 13.9055,57.70495 13.846,57.69495 C13.3025,57.59845 12.9395,57.07995 13.035,56.53595 L20.478,14.32595 C20.5735,13.78245 21.088,13.41845 21.6365,13.51495 C22.1805,13.61145 22.5435,14.12995 22.448,14.67395 L15.005,56.88395 C14.9195,57.36845 14.4975,57.70995 14.021,57.70995" id="Fill-215" fill="#FFFFFF"></path>
            <path d="M17.45655,42.98 L53.70555,42.98 L58.16305,17.7 L21.91355,17.7 L17.45655,42.98 Z M54.54455,44.98 L16.26455,44.98 C15.96905,44.98 15.68855,44.849 15.49855,44.6225 C15.30855,44.3965 15.22855,44.0975 15.27955,43.806 L20.09005,16.5265 C20.17455,16.049 20.58955,15.7 21.07455,15.7 L59.35505,15.7 C59.65055,15.7 59.93105,15.831 60.12105,16.0575 C60.31105,16.2835 60.39105,16.5825 60.34005,16.874 L55.52955,44.154 C55.44505,44.6315 55.02955,44.98 54.54455,44.98 L54.54455,44.98 Z" id="Fill-217" fill="#FFFFFF"></path>
            <path d="M19.8618,29.33985 L36.7503,29.33985 L38.8028,17.70035 L21.9138,17.70035 L19.8618,29.33985 Z M37.5898,31.33985 L18.6698,31.33985 C18.3743,31.33985 18.0938,31.20885 17.9038,30.98235 C17.7138,30.75635 17.6338,30.45735 17.6848,30.16585 L20.0898,16.52635 C20.1743,16.04885 20.5893,15.70035 21.0748,15.70035 L39.9948,15.70035 C40.2898,15.70035 40.5708,15.83085 40.7608,16.05785 C40.9508,16.28385 41.0308,16.58235 40.9793,16.87385 L38.5748,30.51385 C38.4903,30.99135 38.0753,31.33985 37.5898,31.33985 L37.5898,31.33985 Z" id="Fill-219" fill="#FFFFFF"></path>
            <path d="M37.58935,31.33985 C37.36535,31.33985 37.13985,31.26485 36.95335,31.11085 L20.43785,17.47135 C20.01235,17.11985 19.95235,16.48935 20.30385,16.06335 C20.65585,15.63835 21.28535,15.57835 21.71135,15.92935 L38.22635,29.56885 C38.65235,29.92035 38.71235,30.55085 38.36085,30.97635 C38.16285,31.21585 37.87735,31.33985 37.58935,31.33985" id="Fill-221" fill="#FFFFFF"></path>
            <path d="M18.6709,31.33985 C18.3414,31.33985 18.0184,31.17735 17.8274,30.87885 C17.5299,30.41335 17.6659,29.79485 18.1309,29.49735 L39.4554,15.85785 C39.9204,15.55935 40.5389,15.69585 40.8369,16.16135 C41.1349,16.62635 40.9984,17.24535 40.5339,17.54235 L19.2089,31.18235 C19.0419,31.28885 18.8554,31.33985 18.6709,31.33985" id="Fill-223" fill="#FFFFFF"></path>
            <path d="M28.13085,31.33985 C28.07335,31.33985 28.01535,31.33485 27.95585,31.32485 C27.41235,31.22835 27.04935,30.70985 27.14485,30.16585 L29.54985,16.52635 C29.64535,15.98235 30.15985,15.61885 30.70835,15.71535 C31.25185,15.81135 31.61535,16.32985 31.51935,16.87385 L29.11485,30.51385 C29.02935,30.99835 28.60735,31.33985 28.13085,31.33985" id="Fill-225" fill="#FFFFFF"></path>
            <path d="M38.7925,24.52 L19.872,24.52 C19.32,24.52 18.872,24.072 18.872,23.52 C18.872,22.968 19.32,22.52 19.872,22.52 L38.7925,22.52 C39.3445,22.52 39.7925,22.968 39.7925,23.52 C39.7925,24.072 39.3445,24.52 38.7925,24.52" id="Fill-227" fill="#FFFFFF"></path>
            <path d="M43.34865,30.1201 C43.24115,30.7276 42.66215,31.2201 42.05465,31.2201 C41.44715,31.2201 41.04165,30.7276 41.14865,30.1201 C41.25565,29.5126 41.83515,29.0201 42.44265,29.0201 C43.04965,29.0201 43.45565,29.5126 43.34865,30.1201" id="Fill-229" fill="#FFFFFF"></path>
            <path d="M45.6533,38.25975 C45.5458,38.86775 44.9668,39.35975 44.3593,39.35975 C43.7518,39.35975 43.3463,38.86775 43.4533,38.25975 C43.5603,37.65225 44.1398,37.16025 44.7473,37.16025 C45.3543,37.16025 45.7603,37.65225 45.6533,38.25975" id="Fill-231" fill="#FFFFFF"></path>
            <path d="M48.3169,24.3999 C48.2099,25.0074 47.6309,25.4999 47.0229,25.4999 C46.4154,25.4999 46.0099,25.0074 46.1174,24.3999 C46.2239,23.7924 46.8039,23.2999 47.4109,23.2999 C48.0184,23.2999 48.4244,23.7924 48.3169,24.3999" id="Fill-233" fill="#FFFFFF"></path>
            <path d="M51.26855,30.1201 C51.16155,30.7276 50.58205,31.2201 49.97455,31.2201 C49.36705,31.2201 48.96155,30.7276 49.06855,30.1201 C49.17555,29.5126 49.75505,29.0201 50.36255,29.0201 C50.97005,29.0201 51.37555,29.5126 51.26855,30.1201" id="Fill-235" fill="#FFFFFF"></path>
        </g>
    </g>
</svg>