<?xml version="1.0" encoding="UTF-8"?>
<svg width="70px" height="70px" viewBox="0 0 70 70" version="1.1" xmlns="http://www.w3.org/2000/svg" xmlns:xlink="http://www.w3.org/1999/xlink">
    <!-- Generator: Sketch 64 (93537) - https://sketch.com -->
    <title>offshore</title>
    <desc>Created with Sketch.</desc>
    <g id="Page-1" stroke="none" stroke-width="1" fill="none" fill-rule="evenodd">
        <g id="offshore">
            <path d="M70,35 C70,54.33 54.33,70 35,70 C15.67,70 0,54.33 0,35 C0,15.67 15.67,0 35,0 C54.33,0 70,15.67 70,35" id="Fill-1" fill="#A7BFA2"></path>
            <path d="M35,0 C15.67,0 0,15.67 0,35 C0,54.33 15.67,70 35,70 C54.33,70 70,54.33 70,35 C70,15.67 54.33,0 35,0 M35,2 C53.1965,2 68,16.8035 68,35 C68,53.1965 53.1965,68 35,68 C16.8035,68 2,53.1965 2,35 C2,16.8035 16.8035,2 35,2" id="Fill-3" fill="#FFFFFF"></path>
            <path d="M19.99415,63.33935 C19.46715,63.33935 19.02565,62.92735 18.99665,62.39385 C17.67565,38.36785 29.94715,24.48835 35.28415,19.63635 C35.69315,19.26485 36.32565,19.29485 36.69665,19.70385 C37.06815,20.11235 37.03865,20.74485 36.62965,21.11635 C31.50465,25.77585 19.72015,39.11535 20.99365,62.28485 C21.02415,62.83585 20.60165,63.30785 20.04965,63.33785 C20.03115,63.33885 20.01265,63.33935 19.99415,63.33935" id="Fill-29" fill="#FFFFFF"></path>
            <path d="M36.96145,66.24805 C36.63445,66.24805 36.31395,66.08805 36.12245,65.79405 C30.20945,56.71255 29.95595,47.32155 30.78445,41.04305 C31.70645,34.05755 34.22145,28.47005 35.68595,26.41855 C36.00745,25.96905 36.63245,25.86455 37.08095,26.18605 C37.53095,26.50755 37.63495,27.13205 37.31395,27.58155 C35.27545,30.43505 27.16095,48.36555 37.79845,64.70205 C38.09945,65.16505 37.96895,65.78455 37.50645,66.08605 C37.33795,66.19605 37.14845,66.24805 36.96145,66.24805" id="Fill-31" fill="#FFFFFF"></path>
            <path d="M53.71925,47.2783 C53.67225,47.2783 53.62525,47.2748 53.57725,47.2678 C53.35025,47.2358 47.92925,46.3693 40.36975,37.2978 C32.70975,28.1063 35.61425,18.2758 35.74175,17.8618 C35.90325,17.3333 36.46625,17.0388 36.99125,17.2003 C37.51875,17.3623 37.81475,17.9208 37.65375,18.4483 C37.62575,18.5393 34.96075,27.6838 41.90575,36.0178 C47.29975,42.4903 51.46425,44.4903 53.10675,45.0693 C54.27825,41.6343 57.56825,28.2928 42.10325,19.0133 C41.62925,18.7293 41.47625,18.1148 41.76025,17.6418 C42.04425,17.1673 42.65875,17.0143 43.13225,17.2988 C62.16625,28.7188 54.71325,46.4983 54.63575,46.6773 C54.47575,47.0458 54.11225,47.2783 53.71925,47.2783" id="Fill-33" fill="#FFFFFF"></path>
            <path d="M18.0874,30.8733 C14.9994,30.8733 11.4609,30.2693 7.4709,28.7078 C7.0694,28.5508 6.8134,28.1548 6.8364,27.7243 C6.8449,27.5673 7.0759,23.8348 10.3014,19.9248 C13.2119,16.3963 19.2439,12.0253 31.4519,11.2378 C32.0109,11.2073 32.4794,11.6203 32.5144,12.1713 C32.5504,12.7223 32.1324,13.1978 31.5809,13.2333 C12.5664,14.4603 9.4334,24.3358 8.9279,27.1218 C24.4929,32.8243 31.9874,23.0618 32.3039,22.6373 C32.6334,22.1948 33.2594,22.1018 33.7019,22.4293 C34.1444,22.7573 34.2399,23.3813 33.9124,23.8253 C33.8454,23.9163 28.5664,30.8733 18.0874,30.8733" id="Fill-35" fill="#FFFFFF"></path>
            <path d="M54.21925,18.656 C53.94575,18.656 53.67375,18.5445 53.47625,18.326 C53.10625,17.916 53.13875,17.2835 53.54875,16.9135 C54.20425,16.3225 54.91375,14.642 55.33425,13.3815 C46.71775,7.2585 39.14675,13.4665 38.82225,13.7395 C38.58075,13.9435 38.25525,14.0225 37.94675,13.9475 C37.63875,13.8745 37.38275,13.6605 37.25825,13.3695 C35.60225,9.5055 32.15525,7.6445 27.01075,7.85 C23.98875,7.9685 21.21825,8.791 20.00975,9.1995 C20.08725,11.9555 20.60275,13.3395 20.60825,13.354 C20.80425,13.868 20.54875,14.4465 20.03625,14.6455 C19.52325,14.8435 18.94625,14.5935 18.74575,14.082 C18.71475,14.005 18.00025,12.148 18.00025,8.5 C18.00025,8.091 18.24925,7.723 18.62875,7.5715 C23.80475,5.505 34.31275,3.829 38.55725,11.479 C41.25875,9.729 48.92275,5.91 57.10975,12.2075 C57.43475,12.4575 57.57425,12.8805 57.46125,13.2745 C57.35125,13.661 56.34075,17.088 54.88875,18.3985 C54.69725,18.571 54.45825,18.656 54.21925,18.656" id="Fill-37" fill="#FFFFFF"></path>
            <path d="M58.0591,30.3218 C56.1856,30.3218 54.0056,29.9293 51.9396,28.6218 C51.4726,28.3263 51.3341,27.7088 51.6296,27.2418 C51.9241,26.7753 52.5436,26.6368 53.0086,26.9318 C56.0761,28.8738 59.5931,28.3248 61.2566,27.8913 C56.1221,16.3333 44.2206,16.1958 44.0976,16.1958 C43.5456,16.1958 43.0976,15.7483 43.0976,15.1958 C43.0976,14.6438 43.5456,14.1958 44.0976,14.1958 C44.2376,14.1958 58.1651,14.3553 63.5316,28.1543 C63.7296,28.6633 63.4826,29.2368 62.9771,29.4428 C62.8341,29.5013 60.7681,30.3218 58.0591,30.3218" id="Fill-39" fill="#FFFFFF"></path>
            <path d="M39.6079,34.32715 C39.3924,34.32715 39.1764,34.25815 38.9934,34.11615 C38.5579,33.77615 38.4799,33.14815 38.8199,32.71265 L42.5694,27.90215 C42.9099,27.46665 43.5379,27.38965 43.9724,27.72815 C44.4084,28.06765 44.4864,28.69615 44.1464,29.13165 L40.3969,33.94165 C40.1999,34.19465 39.9054,34.32715 39.6079,34.32715" id="Fill-41" fill="#FFFFFF"></path>
            <path d="M42.4131,38.8618 C42.1976,38.8618 41.9816,38.7928 41.7986,38.6503 C41.3631,38.3108 41.2851,37.6828 41.6251,37.2473 L45.1596,32.7123 C45.5001,32.2768 46.1291,32.1998 46.5631,32.5383 C46.9986,32.8778 47.0766,33.5063 46.7366,33.9418 L43.2021,38.4763 C43.0051,38.7293 42.7106,38.8618 42.4131,38.8618" id="Fill-43" fill="#FFFFFF"></path>
            <path d="M21.15575,30.6853 C20.60375,30.6853 20.15575,30.2373 20.15575,29.6853 L20.15575,23.3363 C20.15575,22.7843 20.60375,22.3363 21.15575,22.3363 C21.70775,22.3363 22.15575,22.7843 22.15575,23.3363 L22.15575,29.6853 C22.15575,30.2373 21.70775,30.6853 21.15575,30.6853" id="Fill-45" fill="#FFFFFF"></path>
            <path d="M26.33645,28.77685 C25.78445,28.77685 25.33645,28.32885 25.33645,27.77685 L25.33645,21.11635 C25.33645,20.56385 25.78445,20.11635 26.33645,20.11635 C26.88845,20.11635 27.33645,20.56385 27.33645,21.11635 L27.33645,27.77685 C27.33645,28.32885 26.88845,28.77685 26.33645,28.77685" id="Fill-47" fill="#FFFFFF"></path>
        </g>
    </g>
</svg>