<?xml version="1.0" encoding="UTF-8"?>
<svg width="70px" height="70px" viewBox="0 0 70 70" version="1.1" xmlns="http://www.w3.org/2000/svg" xmlns:xlink="http://www.w3.org/1999/xlink">
    <title>Group 25</title>
    <g id="Page-1" stroke="none" stroke-width="1" fill="none" fill-rule="evenodd">
        <g id="Group-25">
            <path d="M70,35 C70,54.33 54.33,70 35,70 C15.67,70 0,54.33 0,35 C0,15.67 15.67,0 35,0 C54.33,0 70,15.67 70,35" id="Fill-1" fill="#BF9F99"></path>
            <path d="M35,0 C15.67,0 0,15.67 0,35 C0,54.33 15.67,70 35,70 C54.33,70 70,54.33 70,35 C70,15.67 54.33,0 35,0 M35,2 C53.1965,2 68,16.8035 68,35 C68,53.1965 53.1965,68 35,68 C16.8035,68 2,53.1965 2,35 C2,16.8035 16.8035,2 35,2" id="Fill-3" fill="#FFFFFF"></path>
            <path d="M35,8 C31.619,8 28.487,9.3615 26.181,11.8335 C23.8745,14.3055 22.7335,17.5245 22.9675,20.897 L23.701,31.4585 C24.1115,37.3695 29.0745,42 35,42 C40.9255,42 45.8885,37.3695 46.299,31.4585 L47.0325,20.897 C47.2665,17.5245 46.1255,14.3055 43.819,11.8335 C41.513,9.3615 38.381,8 35,8 M35,44 C28.028,44 22.1885,38.552 21.706,31.597 L20.9725,21.0355 C20.699,17.1035 22.03,13.351 24.7185,10.469 C27.407,7.587 31.0585,6 35,6 C38.9415,6 42.593,7.587 45.2815,10.469 C47.97,13.351 49.301,17.1035 49.0275,21.0355 L48.294,31.597 C47.8115,38.552 41.972,44 35,44" id="Fill-5" fill="#FFFFFF"></path>
            <path d="M58.29665,55.73585 C57.96015,55.73585 57.63165,55.56635 57.44315,55.25835 C56.29715,53.38885 54.39815,52.11785 52.23165,51.77085 L42.72365,50.49135 C42.17615,50.41735 41.79215,49.91385 41.86615,49.36685 C41.94015,48.81885 42.44065,48.43885 42.99065,48.50885 L52.52315,49.79235 C55.29115,50.23485 57.69715,51.84485 59.14815,54.21335 C59.43665,54.68385 59.28915,55.29985 58.81815,55.58835 C58.65515,55.68835 58.47465,55.73585 58.29665,55.73585" id="Fill-7" fill="#FFFFFF"></path>
            <path d="M11.5608,55.5591 C11.3733,55.5591 11.1838,55.5066 11.0153,55.3966 C10.5528,55.0946 10.4228,54.4751 10.7243,54.0126 C12.1973,51.7561 14.5703,50.2261 17.2338,49.8166 L27.2273,48.5081 C27.7728,48.4411 28.2768,48.8226 28.3483,49.3701 C28.4203,49.9181 28.0343,50.4201 27.4868,50.4916 L17.5153,51.7966 C15.4353,52.1166 13.5623,53.3241 12.3993,55.1056 C12.2073,55.3996 11.8873,55.5591 11.5608,55.5591" id="Fill-9" fill="#FFFFFF"></path>
            <path d="M22.2224,23.874 C21.7879,23.874 21.3879,23.5885 21.2619,23.15 C21.1094,22.619 21.4159,22.065 21.9469,21.9125 C28.1054,20.1425 29.4254,14.986 29.4784,14.7675 C29.5764,14.3645 29.9124,14.0625 30.3234,14.0095 C30.7354,13.9595 31.1349,14.161 31.3314,14.526 C31.3599,14.5755 34.9064,20.5 50.4509,20.5 C51.0034,20.5 51.4509,20.9475 51.4509,21.5 C51.4509,22.052 51.0034,22.5 50.4509,22.5 C38.3059,22.5 32.9134,19.021 30.7829,16.956 C29.8044,19.0295 27.4994,22.398 22.4989,23.8345 C22.4069,23.8615 22.3139,23.874 22.2224,23.874" id="Fill-11" fill="#FFFFFF"></path>
            <path d="M50.14575,44 L42.37025,44 C41.81825,44 41.37025,43.552 41.37025,43 C41.37025,42.448 41.81825,42 42.37025,42 L50.14575,42 C52.38525,42 54.40225,40.8485 55.54125,38.92 C56.67975,36.991 56.71375,34.669 55.63225,32.708 L46.62275,16.3745 C46.35625,15.891 46.53175,15.2825 47.01575,15.016 C47.49925,14.75 48.10725,14.9255 48.37425,15.4085 L57.38375,31.742 C58.81025,34.329 58.76525,37.3925 57.26325,39.937 C55.76075,42.481 53.10025,44 50.14575,44" id="Fill-13" fill="#FFFFFF"></path>
            <path d="M27.45095,44 L20.17545,44 C17.22095,44 14.56045,42.481 13.05795,39.937 C11.55595,37.3925 11.51095,34.329 12.93795,31.742 L21.94695,15.4085 C22.21395,14.9255 22.82245,14.75 23.30545,15.016 C23.78945,15.2825 23.96495,15.891 23.69845,16.3745 L14.68945,32.708 C13.60745,34.669 13.64145,36.991 14.78045,38.92 C15.91895,40.8485 17.93595,42 20.17545,42 L27.45095,42 C28.00295,42 28.45095,42.448 28.45095,43 C28.45095,43.552 28.00295,44 27.45095,44" id="Fill-15" fill="#FFFFFF"></path>
            <path d="M35,53.75 C30.9005,53.75 26.75,52.376 26.75,49.75 C26.75,49.6495 26.757,49.5555 26.771,49.4575 L27.4275,41.4085 C27.4725,40.858 27.9575,40.4435 28.5055,40.493 C29.056,40.538 29.466,41.0205 29.421,41.571 L28.7615,49.656 C28.7595,49.6845 28.756,49.713 28.751,49.7405 C28.75,50.455 31.123,51.75 35,51.75 C38.877,51.75 41.25,50.455 41.25,49.75 C41.2455,49.7215 41.24,49.68 41.238,49.652 L40.594,41.2695 C40.552,40.719 40.964,40.2385 41.5145,40.196 C42.069,40.1565 42.546,40.566 42.5885,41.116 L43.229,49.4615 C43.243,49.558 43.25,49.651 43.25,49.75 C43.25,52.376 39.0995,53.75 35,53.75" id="Fill-17" fill="#FFFFFF"></path>
            <path d="M39.70095,58.75 C35.15245,58.75 33.95095,54.989 33.95095,53 C33.95095,52.448 34.39895,52 34.95095,52 C35.50195,52 35.94895,52.446 35.95095,52.996 C35.95495,53.3845 36.09295,56.75 39.70095,56.75 C43.45795,56.75 43.94895,50.493 43.95345,50.43 C43.99245,49.88 44.47145,49.474 45.02095,49.503 C45.57145,49.5415 45.98645,50.0185 45.94845,50.569 C45.92545,50.903 45.31995,58.75 39.70095,58.75 L39.70095,58.75 Z" id="Fill-19" fill="#FFFFFF"></path>
            <path d="M30.35085,58.75 C24.73185,58.75 24.12635,50.903 24.10335,50.569 C24.06535,50.018 24.48085,49.5405 25.03185,49.5025 C25.58985,49.471 26.06035,49.8805 26.09835,50.431 C26.10285,50.493 26.59385,56.75 30.35085,56.75 C33.96135,56.75 34.09735,53.38 34.10085,52.9955 C34.10585,52.447 34.55235,52.0025 35.10085,52.0025 L35.10535,52.0025 C35.65585,52.005 36.10085,52.4495 36.10085,53 C36.10085,54.989 34.89935,58.75 30.35085,58.75" id="Fill-21" fill="#FFFFFF"></path>
            <path d="M36.45095,60.75 C36.45095,61.4405 35.89145,62 35.20095,62 C34.51045,62 33.95095,61.4405 33.95095,60.75 C33.95095,60.0595 34.51045,59.5 35.20095,59.5 C35.89145,59.5 36.45095,60.0595 36.45095,60.75" id="Fill-23" fill="#FFFFFF"></path>
        </g>
    </g>
</svg>